<svg viewBox="0 0 390 814" fill="none" xmlns="http://www.w3.org/2000/svg">
<path d="M-44.3234 2.17858L106.43 4.18223C130.641 4.50402 154.767 7.10544 178.49 11.952L201.759 16.7059C227.695 22.0047 252.586 31.5251 275.439 44.8872L293.289 55.3241C318.845 70.2671 339.94 91.773 354.387 117.613V117.613C372.29 149.633 379.081 186.682 373.699 222.97L370.56 244.134C367.477 264.922 360.936 285.048 351.207 303.676V303.676C328.029 348.054 288.13 381.373 240.331 396.267L132.193 429.964C91.8685 442.53 57.7175 469.751 36.4769 506.258L35.9386 507.184C26.3866 523.601 19.7815 541.564 16.4223 560.258V560.258C12.1927 583.797 13.2015 607.978 19.3769 631.082L19.8222 632.749C32.0525 678.507 62.764 717.117 104.598 739.327L137.361 756.721C163.261 770.471 191.332 779.664 220.349 783.896L413 812" stroke="#787878" stroke-opacity="0.66" stroke-width="4" stroke-linecap="round" stroke-dasharray="10 20"/>
</svg>
