<svg width="94" height="18" viewBox="0 0 94 18" fill="none" xmlns="http://www.w3.org/2000/svg">
<path d="M12.4345 15.7277C12.3282 15.7281 12.2245 15.6937 12.1381 15.6294L8.07926 12.5743L4.02042 15.6294C3.9337 15.6947 3.82923 15.7296 3.72211 15.7292C3.61499 15.7288 3.51077 15.6931 3.42451 15.6271C3.33826 15.5612 3.27444 15.4684 3.24228 15.3624C3.21013 15.2563 3.2113 15.1423 3.24563 15.037L4.82865 10.169L0.725936 7.24788C0.637069 7.18468 0.569996 7.09363 0.53452 6.98803C0.499043 6.88244 0.497021 6.76783 0.528749 6.66096C0.560476 6.55408 0.624292 6.46054 0.71087 6.394C0.797448 6.32746 0.902253 6.29141 1.00997 6.29112H6.07146L7.59893 1.41066C7.63183 1.30529 7.69604 1.21345 7.78233 1.14832C7.86863 1.08318 7.97257 1.0481 8.07926 1.0481C8.18595 1.0481 8.2899 1.08318 8.37619 1.14832C8.46249 1.21345 8.52669 1.30529 8.5596 1.41066L10.0871 6.29276H15.1486C15.2564 6.2927 15.3614 6.3285 15.4483 6.39491C15.5351 6.46132 15.5992 6.55486 15.6311 6.66181C15.663 6.76877 15.6612 6.88353 15.6257 6.98928C15.5903 7.09504 15.5231 7.18624 15.4342 7.24952L11.3299 10.169L12.9119 15.0357C12.9376 15.1144 12.9448 15.1984 12.933 15.2807C12.9212 15.363 12.8907 15.4411 12.844 15.5087C12.7974 15.5763 12.7359 15.6314 12.6647 15.6695C12.5935 15.7076 12.5146 15.7275 12.4345 15.7277Z" fill="#444444"/>
<g clip-path="url(#clip0_124_147)">
<path d="M31.8246 15.7279C31.7183 15.7283 31.6146 15.6939 31.5282 15.6296L27.4694 12.5745L23.4106 15.6296C23.3238 15.6949 23.2194 15.7299 23.1122 15.7295C23.0051 15.7291 22.9009 15.6933 22.8146 15.6274C22.7284 15.5614 22.6646 15.4687 22.6324 15.3626C22.6003 15.2565 22.6014 15.1426 22.6358 15.0372L24.2188 10.1692L20.1161 7.24813C20.0272 7.18492 19.9601 7.09387 19.9247 6.98828C19.8892 6.88268 19.8872 6.76807 19.9189 6.6612C19.9506 6.55433 20.0144 6.46078 20.101 6.39425C20.1876 6.32771 20.2924 6.29166 20.4001 6.29136H25.4616L26.9891 1.4109C27.022 1.30553 27.0862 1.2137 27.1725 1.14856C27.2588 1.08342 27.3627 1.04834 27.4694 1.04834C27.5761 1.04834 27.68 1.08342 27.7663 1.14856C27.8526 1.2137 27.9168 1.30553 27.9497 1.4109L29.4772 6.293H34.5387C34.6465 6.29295 34.7516 6.32875 34.8384 6.39516C34.9253 6.46157 34.9893 6.5551 35.0213 6.66206C35.0532 6.76901 35.0513 6.88377 35.0158 6.98953C34.9804 7.09529 34.9133 7.18648 34.8243 7.24976L30.72 10.1692L32.3021 15.0359C32.3277 15.1147 32.3349 15.1987 32.3231 15.2809C32.3113 15.3632 32.2808 15.4414 32.2342 15.509C32.1875 15.5766 32.126 15.6317 32.0548 15.6698C31.9836 15.7078 31.9047 15.7278 31.8246 15.7279Z" fill="#444444"/>
</g>
<g clip-path="url(#clip1_124_147)">
<path d="M51.2145 16.5665C51.1082 16.567 51.0045 16.5326 50.9181 16.4682L46.8593 13.4132L42.8004 16.4682C42.7137 16.5335 42.6093 16.5685 42.5021 16.5681C42.395 16.5677 42.2908 16.5319 42.2045 16.466C42.1183 16.4 42.0545 16.3073 42.0223 16.2012C41.9902 16.0951 41.9913 15.9812 42.0257 15.8758L43.6087 11.0078L39.506 8.08675C39.4171 8.02355 39.35 7.9325 39.3145 7.8269C39.2791 7.7213 39.277 7.6067 39.3088 7.49982C39.3405 7.39295 39.4043 7.29941 39.4909 7.23287C39.5775 7.16633 39.6823 7.13028 39.79 7.12999H44.8515L46.379 2.24952C46.4119 2.14416 46.4761 2.05232 46.5624 1.98718C46.6487 1.92205 46.7526 1.88696 46.8593 1.88696C46.966 1.88696 47.0699 1.92205 47.1562 1.98718C47.2425 2.05232 47.3067 2.14416 47.3396 2.24952L48.8671 7.13163H53.9286C54.0364 7.13157 54.1415 7.16737 54.2283 7.23378C54.3151 7.30019 54.3792 7.39372 54.4111 7.50068C54.4431 7.60764 54.4412 7.7224 54.4057 7.82815C54.3703 7.93391 54.3032 8.02511 54.2142 8.08839L50.1099 11.0078L51.692 15.8745C51.7176 15.9533 51.7248 16.0373 51.713 16.1196C51.7012 16.2018 51.6707 16.28 51.6241 16.3476C51.5774 16.4152 51.5159 16.4703 51.4447 16.5084C51.3735 16.5465 51.2946 16.5664 51.2145 16.5665Z" fill="#444444"/>
</g>
<g clip-path="url(#clip2_124_147)">
<path d="M70.6046 15.7279C70.4983 15.7283 70.3946 15.6939 70.3083 15.6296L66.2494 12.5745L62.1906 15.6296C62.1039 15.6949 61.9994 15.7299 61.8923 15.7295C61.7852 15.7291 61.6809 15.6933 61.5947 15.6274C61.5084 15.5614 61.4446 15.4687 61.4124 15.3626C61.3803 15.2565 61.3815 15.1426 61.4158 15.0372L62.9988 10.1692L58.8961 7.24813C58.8072 7.18492 58.7402 7.09387 58.7047 6.98828C58.6692 6.88268 58.6672 6.76807 58.6989 6.6612C58.7306 6.55433 58.7945 6.46078 58.881 6.39425C58.9676 6.32771 59.0724 6.29166 59.1801 6.29136H64.2416L65.7691 1.4109C65.802 1.30553 65.8662 1.2137 65.9525 1.14856C66.0388 1.08342 66.1427 1.04834 66.2494 1.04834C66.3561 1.04834 66.4601 1.08342 66.5464 1.14856C66.6327 1.2137 66.6969 1.30553 66.7298 1.4109L68.2572 6.293H73.3187C73.4266 6.29295 73.5316 6.32875 73.6184 6.39516C73.7053 6.46157 73.7694 6.5551 73.8013 6.66206C73.8332 6.76901 73.8313 6.88377 73.7959 6.98953C73.7604 7.09529 73.6933 7.18648 73.6043 7.24976L69.5 10.1692L71.0821 15.0359C71.1077 15.1147 71.115 15.1987 71.1031 15.2809C71.0913 15.3632 71.0608 15.4414 71.0142 15.509C70.9675 15.5766 70.9061 15.6317 70.8349 15.6698C70.7636 15.7078 70.6847 15.7278 70.6046 15.7279Z" fill="#444444"/>
</g>
<g clip-path="url(#clip3_124_147)">
<path d="M89.9948 15.7279C89.8885 15.7283 89.7848 15.6939 89.6984 15.6296L85.6396 12.5745L81.5807 15.6296C81.494 15.6949 81.3895 15.7299 81.2824 15.7295C81.1753 15.7291 81.0711 15.6933 80.9848 15.6274C80.8986 15.5614 80.8347 15.4687 80.8026 15.3626C80.7704 15.2565 80.7716 15.1426 80.8059 15.0372L82.389 10.1692L78.2862 7.24813C78.1974 7.18492 78.1303 7.09387 78.0948 6.98828C78.0593 6.88268 78.0573 6.76807 78.0891 6.6612C78.1208 6.55433 78.1846 6.46078 78.2712 6.39425C78.3578 6.32771 78.4626 6.29166 78.5703 6.29136H83.6318L85.1592 1.4109C85.1921 1.30553 85.2563 1.2137 85.3426 1.14856C85.4289 1.08342 85.5329 1.04834 85.6396 1.04834C85.7463 1.04834 85.8502 1.08342 85.9365 1.14856C86.0228 1.2137 86.087 1.30553 86.1199 1.4109L87.6474 6.293H92.7089C92.8167 6.29295 92.9217 6.32875 93.0086 6.39516C93.0954 6.46157 93.1595 6.5551 93.1914 6.66206C93.2233 6.76901 93.2215 6.88377 93.186 6.98953C93.1506 7.09529 93.0834 7.18648 92.9945 7.24976L88.8902 10.1692L90.4722 15.0359C90.4979 15.1147 90.5051 15.1987 90.4933 15.2809C90.4815 15.3632 90.451 15.4414 90.4043 15.509C90.3577 15.5766 90.2962 15.6317 90.225 15.6698C90.1538 15.7078 90.0749 15.7278 89.9948 15.7279Z" fill="#444444"/>
</g>
<defs>
<clipPath id="clip0_124_147">
<rect width="16.1584" height="16.7761" fill="white" transform="translate(19.3901 0.000244141)"/>
</clipPath>
<clipPath id="clip1_124_147">
<rect width="16.1584" height="16.7761" fill="white" transform="translate(38.78 0.838867)"/>
</clipPath>
<clipPath id="clip2_124_147">
<rect width="16.1584" height="16.7761" fill="white" transform="translate(58.1702 0.000244141)"/>
</clipPath>
<clipPath id="clip3_124_147">
<rect width="16.1584" height="16.7761" fill="white" transform="translate(77.5603 0.000244141)"/>
</clipPath>
</defs>
</svg>
